<svg width="65" xmlns="http://www.w3.org/2000/svg" height="65" fill="none"><g class="fills"><rect rx="0" ry="0" width="65" height="65" class="frame-background"/></g><g style="fill: rgb(0, 0, 0);" class="frame-children"><path d="M51.458 5.417H13.542a5.415 5.415 0 0 0-5.417 5.416V48.75a5.415 5.415 0 0 0 5.417 5.417h10.833l8.125 8.125 8.125-8.125h10.833a5.415 5.415 0 0 0 5.417-5.417V10.833a5.415 5.415 0 0 0-5.417-5.416ZM32.5 14.354a7.317 7.317 0 0 1 7.313 7.313 7.317 7.317 0 0 1-7.313 7.312 7.316 7.316 0 0 1-7.312-7.312 7.316 7.316 0 0 1 7.312-7.313Zm16.25 28.979h-32.5v-2.437c0-5.417 10.833-8.396 16.25-8.396s16.25 2.979 16.25 8.396v2.437Z" style="fill: rgb(165, 178, 223); fill-opacity: 1;" class="fills"/><path d="M0 0h65v65H0Z" fill="none" style="fill: none;" class="fills"/></g></svg>